<?xml version="1.0" encoding="utf-8"?>
<svg xmlns="http://www.w3.org/2000/svg" width="400" height="400" viewBox="315 211 400 400">
  <path fill="#255645" d="M482.673 247.199C515.623 245.092 548.353 253.869 575.828 272.179C643.991 317.691 666.19 406.44 621.519 476.794C620.014 479.164 618.43 481.492 616.865 483.823C636.357 504.513 658.155 523.631 677.694 544.29C689.01 556.254 674.715 577.229 658.754 569.167C654.201 566.868 650.785 562.854 647.727 560.34C640.685 554.55 598.523 510.082 594.192 509.228L592.673 510.448C568.136 531.337 539.487 542.804 507.522 546.092C467.045 550.543 426.476 538.559 394.914 512.83C363.991 487.77 344.405 451.36 340.537 411.747C336.805 371.21 349.516 330.875 375.814 299.802C403.56 266.497 440.436 251.055 482.673 247.199Z"/>
  <path fill="#FBF7EF" d="M594.516 401.837C594.586 391.832 594.645 385.461 592.507 375.591C586.873 349.392 570.956 326.552 548.327 312.197C524.409 296.898 495.372 291.785 467.667 297.991C432.254 306.04 403.878 332.465 393.334 367.217C392.718 369.303 391.506 373.111 391.41 375.226C391.124 381.479 390.682 393.444 382.489 394.916C380.597 395.263 378.647 394.79 377.124 393.616C371.536 389.296 374.246 377.745 375.501 371.825C379.599 351.686 389.116 333.047 403.026 317.917C424.189 294.788 453.628 280.948 484.941 279.409C517.494 277.935 549.296 289.48 573.322 311.495C596.3 332.477 609.901 361.8 611.077 392.894C611.026 395.601 611.007 397.31 611.271 400.055C607.846 398.147 606.112 397.083 602.41 395.907C598.723 397.74 597.59 399.193 594.516 401.837Z"/>
  <path fill="#BA8B45" d="M601.464 443.843C590.879 470.569 564.404 494.589 538.104 505.312C507.899 517.539 474.062 517.199 444.109 504.365C414.995 492.149 392.075 468.655 380.582 439.249C378.32 433.574 374.348 424.125 376.851 417.965C378.297 413.467 385.777 411.334 388.976 414.901C392.7 419.054 395.214 428.911 397.317 434.368C405.629 455.97 421.423 473.868 441.823 484.804C466.568 498.249 495.685 501.163 522.603 492.888C541.478 487.014 558.988 474.289 572.015 459.374C576.432 454.317 581.232 446.005 584.386 440.029C591.793 444.598 593.063 443.227 601.464 443.843Z"/>
  <path fill="#FBF7EF" d="M493.22 459.369C514.48 455.697 530.844 451.574 544.061 432.794C553.654 419.364 557.506 402.668 554.767 386.392C546.124 337.341 488.133 320.757 453.023 346.71C450.964 348.232 442.656 351.859 440.576 349.834C435.814 345.606 435.723 340.316 440.544 336.022C454.834 324.224 475.251 317.932 493.624 318.56C515.693 319.158 536.589 328.629 551.585 344.832C565.506 360.212 572.714 380.511 571.607 401.226C569.743 437.048 541.921 467.667 506.742 473.816C502.787 474.507 498.87 474.841 494.869 475.093C488.837 469.449 489.461 466.267 493.22 459.369Z"/>
  <path fill="#FBF7EF" d="M466.303 367.29C476.825 366.716 487.965 367.291 498.571 367.396C502.546 367.435 521.48 366.895 523.962 369.256C530.876 375.832 528.504 390.781 528.804 399.661C528.99 405.197 529.066 414.173 525.176 418.748C521.189 423.04 508.388 422.157 502.872 422.143L499.633 425.359C496.04 429.35 487.642 439.354 482.393 439.952C476.665 437.931 478.287 427.106 478.44 421.927C457.599 423.006 451.033 422.644 451.429 398.79C451.554 391.268 451.344 383.696 452.821 376.201C453.773 371.365 456.273 369.965 460.133 367.517L466.303 367.29Z"/>
  <path fill="#255645" d="M462.756 374.573C471.145 374.423 514.795 373.126 519.551 375.903C520.575 376.501 521.06 378.676 521.28 379.768C522.441 385.526 523.031 409.277 519.724 413.44C517.858 415.79 507.245 414.971 504.125 414.945L497.306 414.856C493.528 419.673 489.685 424.439 485.777 429.151C490.555 403.747 473.711 419.84 461.035 413.825C457.586 409.378 459.477 388.064 459.141 381.506C458.99 378.577 460.561 376.427 462.756 374.573Z"/>
  <path fill="#FBF7EF" d="M499.044 389.245C500.907 388.508 503.024 388.845 504.567 390.122C506.11 391.4 506.836 393.417 506.46 395.385C506.084 397.353 504.666 398.96 502.76 399.579C499.938 400.496 496.898 399.006 495.894 396.213C494.889 393.421 496.284 390.336 499.044 389.245Z"/>
  <path fill="#FBF7EF" d="M477.635 389.247C480.418 388.107 483.597 389.439 484.736 392.222C485.875 395.005 484.541 398.184 481.758 399.322C478.976 400.459 475.799 399.126 474.661 396.345C473.523 393.563 474.854 390.386 477.635 389.247Z"/>
  <path fill="#BA8B45" d="M494.869 475.093C473.061 475.445 455.121 469.508 438.767 454.679C432.258 448.777 411.611 424.011 420.96 415.587C422.845 413.881 425.356 413.039 427.888 413.262C435.155 413.927 436.301 423.065 439.136 428.447C450.601 450.215 470.212 456.679 493.22 459.369C489.461 466.267 488.837 469.449 494.869 475.093Z"/>
  <path fill="#E6D2A3" d="M611.077 392.894C612.07 401.033 610.607 417.031 608.052 424.825C606.532 431.379 604.324 437.754 601.464 443.843C593.063 443.227 591.793 444.598 584.386 440.029C587.321 434.062 589.056 428.684 591.091 422.421C592.629 414.947 593.562 409.363 594.516 401.837C597.59 399.193 598.723 397.74 602.41 395.907C606.112 397.083 607.846 398.147 611.271 400.055C611.007 397.31 611.026 395.601 611.077 392.894Z"/>
  <path fill="#D6AC63" d="M591.091 422.421C591.585 424.827 590.959 426.274 590.33 428.667C594.671 429.413 600.923 430.326 605.264 429.642C606.666 427.883 606.431 426.308 608.052 424.825C606.532 431.379 604.324 437.754 601.464 443.843C593.063 443.227 591.793 444.598 584.386 440.029C587.321 434.062 589.056 428.684 591.091 422.421Z"/>
  <path fill="#FBF7EF" d="M414.839 370.225C418.13 369.377 421.622 370.368 423.977 372.818C426.332 375.268 427.183 378.797 426.205 382.052C425.227 385.306 422.571 387.781 419.256 388.527C414.238 389.657 409.242 386.551 408.036 381.551C406.829 376.551 409.858 371.508 414.839 370.225Z"/>
</svg>
